<svg xmlns="http://www.w3.org/2000/svg" viewBox="0 0 24 24">
  <path  fill='#067e5b'
    stroke='#067e5b' d="M23.499 6.203a2.92 2.92 0 00-2.047-2.068C19.98 3.5 12 3.5 12 3.5s-7.981 0-9.451.635A2.92 2.92 0 00.5 6.203C.5 6.203 0 8.176 0 10.149v3.701c0 1.973.5 3.946.5 3.946a2.92 2.92 0 002.048 2.068c1.469.635 9.451.635 9.451.635s7.98 0 9.451-.635a2.92 2.92 0 002.048-2.068c.499-1.973.499-3.946.499-3.946v-3.701c0-1.973-.499-3.946-.499-3.946z"/>
  <path fill="#FFF" d="M9.75 15.5l6.5-3.351L9.75 8.75z"/>
</svg>
